<!DOCTYPE svg PUBLIC "-//W3C//DTD SVG 1.1//EN" "http://www.w3.org/Graphics/SVG/1.1/DTD/svg11.dtd">
<!-- Uploaded to: SVG Repo, www.svgrepo.com, Transformed by: SVG Repo Mixer Tools -->
<svg fill="#000000" height="800px" width="800px" version="1.1" id="Layer_1" xmlns="http://www.w3.org/2000/svg" xmlns:xlink="http://www.w3.org/1999/xlink" viewBox="0 0 330 330" xml:space="preserve">
<g id="SVGRepo_bgCarrier" stroke-width="0"/>
<g id="SVGRepo_tracerCarrier" stroke-linecap="round" stroke-linejoin="round"/>
<g id="SVGRepo_iconCarrier"> <g id="XMLID_494_"> <path id="XMLID_495_" d="M143.902,187.748c-2.959,0-4.672,0.865-4.672,5.285v18.934c0,4.471,1.713,5.345,4.672,5.345 c2.961,0,4.676-0.874,4.676-5.345v-18.934C148.578,188.613,146.863,187.748,143.902,187.748z"/> <path id="XMLID_496_" d="M257.348,187.748h-4.611v29.197h4.611c2.923,0,4.734-0.895,4.734-5.345v-18.567 C262.082,188.633,260.271,187.748,257.348,187.748z"/> <path id="XMLID_497_" d="M315,104.987h-68.787l-70.607-70.606c-5.857-5.858-15.355-5.858-21.213,0l-70.606,70.606H15 c-8.284,0-15,6.716-15,15v165.025c0,8.284,6.716,15,15,15h300c8.284,0,15-6.716,15-15V119.987 C330,111.703,323.284,104.987,315,104.987z M72.958,217.312c3.837,0,3.993-1.255,4.336-4.007c0.381-3.047,2.786-5.095,5.986-5.095 c1.411,0,6.014,0.47,6.014,6.504c0,7.117-5.758,14.322-16.763,14.322c-10.268,0-16.646-6.54-16.646-17.069v-18.934 c0-10.491,6.447-17.009,16.826-17.009c10.886,0,16.582,7.144,16.582,14.199c0,4.033-2.248,6.441-6.014,6.441 c-3.885,0-5.815-2.63-6.006-5.236c-0.003-0.036-0.005-0.071-0.007-0.106c-0.102-2.207-0.899-3.574-4.556-3.574 c-3.18,0-4.794,0.817-4.794,5.285v18.934C67.918,216.512,69.543,217.312,72.958,217.312z M119.791,228.671h-19.604 c-3.271,0-5.832-2.455-5.832-5.589v-41.595c0-3.165,2.529-5.463,6.015-5.463c3.43,0,6.016,2.349,6.016,5.463v35.458h13.406 c3.048,0,5.346,2.508,5.346,5.833C125.137,226.138,122.839,228.671,119.791,228.671z M165,66.2l38.787,38.787h-77.574L165,66.2z M160.607,211.967c0,10.688-6.245,17.069-16.705,17.069c-10.458,0-16.701-6.381-16.701-17.069v-18.934 c0-10.65,6.243-17.009,16.701-17.009c10.46,0,16.705,6.358,16.705,17.009V211.967z M181.517,229.099 c-9.457,0-16.523-5.595-16.523-10.598c0-2.955,2.494-6.26,5.833-6.26c2.242,0,3.616,1.48,4.525,2.46 c1.19,1.283,2.422,2.61,5.919,2.61c4.706,0,5.101-2.286,5.101-4.43c0-3.534-1.863-4.549-7.186-6.55 c-5.214-1.958-13.092-4.918-13.092-15.315c0-9.323,6.495-15.115,16.95-15.115c4.933,0,14.26,1.614,14.26,7.726 c0,3.023-2.318,6.26-5.77,6.26c-1.338,0-2.367-0.529-3.274-0.997c-1.148-0.591-2.577-1.326-5.278-1.326 c-4.854,0-4.854,2.009-4.854,3.087c0,1.956,0.955,2.676,6.013,4.534c5.68,2.087,14.263,5.24,14.263,17.331 C198.401,222.744,191.932,229.099,181.517,229.099z M221.264,196.546c3.1,0,5.527,2.561,5.527,5.832c0,3.222-2.376,5.65-5.527,5.65 h-5.587v8.917h15.544c3.1,0,5.527,2.589,5.527,5.894c0,3.325-2.376,5.832-5.527,5.832h-21.742c-3.271,0-5.833-2.455-5.833-5.589 V181.55c0-3.149,2.508-5.525,5.833-5.525h21.742c3.151,0,5.527,2.48,5.527,5.77c0,3.395-2.376,5.954-5.527,5.954h-15.544v8.798 H221.264z M274.114,211.601c0,10.689-6.268,17.07-16.767,17.07h-10.809c-3.27,0-5.832-2.427-5.832-5.526v-41.657 c0-3.063,2.562-5.463,5.832-5.463h10.809c10.499,0,16.767,6.358,16.767,17.009V211.601z"/> </g> </g>
</svg>