<?xml version="1.0" encoding="iso-8859-1"?>
<!-- Uploaded to: SVG Repo, www.svgrepo.com, Generator: SVG Repo Mixer Tools -->
<!DOCTYPE svg PUBLIC "-//W3C//DTD SVG 1.1//EN" "http://www.w3.org/Graphics/SVG/1.1/DTD/svg11.dtd">
<svg fill="#000000" version="1.1" id="Capa_1" xmlns="http://www.w3.org/2000/svg" xmlns:xlink="http://www.w3.org/1999/xlink" 
	 width="800px" height="800px" viewBox="0 0 60.5 60.5" xml:space="preserve">
<g>
	<path d="M46,55.741c8.689-5.256,14.5-14.793,14.5-25.689c0-16.569-13.432-30-30-30c-16.569,0-30,13.431-30,30
		c0,3.376,0.566,6.617,1.594,9.646H0v20.75h46V55.741z M20.249,20.233c0.236-0.137,0.494-0.202,0.749-0.202
		c0.518,0,1.023,0.269,1.301,0.749l8.626,7.914l15.536-15.536c0.293-0.293,0.678-0.439,1.061-0.439c0.385,0,0.769,0.146,1.062,0.439
		c0.586,0.585,0.586,1.536,0,2.121L31.665,32.196c-0.006,0.006-0.015,0.008-0.021,0.012c-0.086,0.084-0.181,0.162-0.289,0.225
		c-0.041,0.023-0.086,0.034-0.129,0.053c-0.043,0.02-0.082,0.037-0.125,0.053c-0.163,0.058-0.33,0.097-0.497,0.097
		c-0.173,0-0.34-0.04-0.501-0.099c-0.04-0.014-0.077-0.028-0.116-0.047c-0.161-0.072-0.312-0.164-0.441-0.293
		c-0.001,0-0.002,0-0.003-0.002c-0.004-0.004-0.005-0.01-0.009-0.014c-0.086-0.088-0.165-0.186-0.229-0.296l-9.604-9.604
		C19.287,21.565,19.532,20.648,20.249,20.233z M44,56.841v1.607h-3.824H20.824H2v-16.75h0.845H44V56.841z M5.133,57.052h8.924
		c0.664,0,1.223-0.438,1.419-1.037c0.048-0.146,0.081-0.301,0.081-0.463v-0.214c0-0.827-0.673-1.5-1.5-1.5h-1.831H9.44
		c0.258-0.161,0.65-0.394,1.246-0.731l0.374-0.214l0.884-0.502c1.107-0.628,1.892-1.192,2.394-1.721
		c0.795-0.827,1.198-1.792,1.198-2.869c0-1.396-0.571-2.53-1.697-3.377c-1.082-0.812-2.539-1.226-4.331-1.226
		c-2.28,0-3.908,0.707-4.845,2.096c-0.011,0.016-0.024,0.029-0.034,0.045c-0.334,0.507-0.569,1.123-0.699,1.828
		c-0.072,0.386,0.028,0.779,0.277,1.078c0.267,0.322,0.669,0.506,1.103,0.506h1.047c0.212,0,0.412-0.047,0.601-0.117
		c0.498-0.188,0.886-0.594,0.98-1.096c0.049-0.256,0.117-0.463,0.199-0.6c0.25-0.414,0.747-0.613,1.52-0.613
		c0.561,0,0.984,0.133,1.261,0.398c0.273,0.262,0.406,0.585,0.406,0.989c0,0.517-0.263,0.991-0.801,1.452
		c-0.325,0.273-1.007,0.716-1.997,1.301c-0.233,0.137-0.466,0.275-0.734,0.43c-1.765,1.01-2.865,1.961-3.348,2.881
		C4.128,54.297,3.9,54.86,3.768,55.452c-0.084,0.381,0.007,0.774,0.25,1.078C4.279,56.856,4.696,57.052,5.133,57.052z
		 M17.553,54.299h4.315c0.275,0,0.5,0.224,0.5,0.5v0.752c0,0.827,0.673,1.5,1.5,1.5h1.069c0.827,0,1.5-0.673,1.5-1.5v-0.752
		c0-0.271,0.184-0.5,0.401-0.5c0.773,0,1.402-0.666,1.402-1.483c0-0.816-0.629-1.482-1.402-1.482c-0.218,0-0.401-0.229-0.401-0.5
		v-5.992c0-0.827-0.673-1.5-1.5-1.5h-1.521c-0.713,0-1.574,0.43-2.002,0.997l-4.659,6.167c-0.4,0.531-0.703,1.434-0.703,2.1V52.8
		C16.053,53.626,16.726,54.299,17.553,54.299z M19.876,51.315l2.492-3.447v2.965c0,0.275-0.225,0.5-0.5,0.5h-1.982
		c-0.008,0-0.015,0-0.021,0C19.867,51.325,19.871,51.321,19.876,51.315z M30.975,57.052h1.136c0.826,0,1.5-0.673,1.5-1.5v-4.21
		c0-0.687,0.168-1.211,0.498-1.558c0.332-0.344,0.826-0.512,1.514-0.512c0.915,0,1.124,0.329,1.203,0.453
		c0.158,0.232,0.24,0.559,0.24,0.971v4.855c0,0.827,0.672,1.5,1.5,1.5h1.201c0.828,0,1.5-0.673,1.5-1.5v-4.65
		c0-0.359-0.006-0.678-0.02-0.957c-0.018-0.402-0.121-1.285-0.379-1.744c-0.117-0.205-0.268-0.41-0.444-0.604
		c-0.44-0.484-1.012-0.848-1.692-1.082c-1.239-0.424-2.854-0.479-4.226,0.025c-0.315,0.119-0.618,0.279-0.896,0.478v-2.426
		c0-0.827-0.674-1.5-1.5-1.5h-1.136c-0.827,0-1.5,0.673-1.5,1.5V55.55C29.475,56.379,30.147,57.052,30.975,57.052z"/>
</g>
</svg>